<svg xmlns="http://www.w3.org/2000/svg" viewBox="0 0 500.3 77.64"><rect width="500.3" height="77.64" fill="none"/><path d="M227.3,49a21,21,0,0,0,4.08,6,17.87,17.87,0,0,0,5.72,3.93,17.38,17.38,0,0,0,6.93,1.4,18.59,18.59,0,0,0,4.7-.61l5.07-18.2H225.41A21.31,21.31,0,0,0,227.3,49Z" fill="none"/><path d="M112.12,22.84A17.92,17.92,0,0,0,106.29,19a18.82,18.82,0,0,0-14.11,0,18.27,18.27,0,0,0-5.83,3.83,18.48,18.48,0,0,0-4,5.88,22.24,22.24,0,0,0-1.81,7.44h37.63a20.44,20.44,0,0,0-6-13.32Z" fill="none"/><path d="M27.47,22.05a9,9,0,0,0-2.95-2.23A8.26,8.26,0,0,0,21,19H6.48V40.27h14.9A7.94,7.94,0,0,0,25,39.44a8.21,8.21,0,0,0,2.77-2.3,11.44,11.44,0,0,0,1.8-3.42,12.76,12.76,0,0,0,.65-4.11,11.58,11.58,0,0,0-2.77-7.56Z" fill="none"/><path d="M250.73,19.48a18.63,18.63,0,0,0-14,0A17.7,17.7,0,0,0,231,23.26a18.67,18.67,0,0,0-4,5.82,22.06,22.06,0,0,0-1.79,7.37h30l3.1-11.12a19.72,19.72,0,0,0-1.81-2.07A17.71,17.71,0,0,0,250.73,19.48Z" fill="none"/><path d="M32.44,18.42a15.74,15.74,0,0,0-4.9-3.75,14,14,0,0,0-6.23-1.4H0V64.39H6.48V46H21.74a13.69,13.69,0,0,0,6.16-1.37A14.93,14.93,0,0,0,32.65,41a16.84,16.84,0,0,0,3.06-5.26,17.73,17.73,0,0,0,1.08-6.12,15.9,15.9,0,0,0-1.15-5.94A18.19,18.19,0,0,0,32.44,18.42Zm-2.85,15.3a11.44,11.44,0,0,1-1.8,3.42A8.28,8.28,0,0,1,25,39.44a7.93,7.93,0,0,1-3.64.83H6.48V19H21a8.19,8.19,0,0,1,3.57.79A9,9,0,0,1,27.52,22a11.58,11.58,0,0,1,2.77,7.56A12.94,12.94,0,0,1,29.59,33.72Z" fill="#fff"/><path d="M66.7,13a14.33,14.33,0,0,0-9.31,3.57,27.08,27.08,0,0,0-7,9V13.33H44.16V64.39h6.66V32.64a18.83,18.83,0,0,1,7.06-9.71,21,21,0,0,1,11.76-3.72V13.13A7.7,7.7,0,0,0,68.37,13Z" fill="#fff"/><path d="M117.46,20.29a24.36,24.36,0,0,0-8-5.74,26,26,0,0,0-20.48,0,25.66,25.66,0,0,0-13.43,14,27.09,27.09,0,0,0-1.91,10.14A27.55,27.55,0,0,0,75.57,49a26.64,26.64,0,0,0,5.34,8.48,24.81,24.81,0,0,0,18.42,7.89,27.16,27.16,0,0,0,7.06-.93,24.72,24.72,0,0,0,6.27-2.65,22.73,22.73,0,0,0,5-4A16.9,16.9,0,0,0,121,52.63l-5.78-1.57a12.84,12.84,0,0,1-2.5,3.77A15.56,15.56,0,0,1,109,57.72a19.53,19.53,0,0,1-4.51,1.87,18.78,18.78,0,0,1-5,.68,17.53,17.53,0,0,1-7-1.42,18.06,18.06,0,0,1-5.78-4,21.69,21.69,0,0,1-6-13.62h43.61a4.93,4.93,0,0,0,.15-1.08V38.58a26.92,26.92,0,0,0-1.86-10A26.59,26.59,0,0,0,117.46,20.29ZM80.52,36.16a22.24,22.24,0,0,1,1.81-7.44,18.48,18.48,0,0,1,4-5.88A18.11,18.11,0,0,1,92.18,19a18.82,18.82,0,0,1,14.11,0,18.11,18.11,0,0,1,5.83,3.83,20.44,20.44,0,0,1,6,13.32Z" fill="#fff"/><path d="M164.14,40.77A20.87,20.87,0,0,0,158.67,38a65.65,65.65,0,0,0-7.17-2c-2.3-.53-4.3-1-6-1.51a19.49,19.49,0,0,1-4.22-1.69,6.63,6.63,0,0,1-2.48-2.34A6.83,6.83,0,0,1,138,27a7.43,7.43,0,0,1,2.77-6.12c1.85-1.49,4.76-2.23,8.75-2.23a20,20,0,0,1,4.43.47,21.7,21.7,0,0,1,3.92,1.22A20.77,20.77,0,0,1,161.11,22a10.48,10.48,0,0,1,2.3,1.95l3-5.26a27.38,27.38,0,0,0-24.12-4.86,16.58,16.58,0,0,0-5.83,2.92,13.46,13.46,0,0,0-3.82,4.75,14.7,14.7,0,0,0-1.3,6.47,12.12,12.12,0,0,0,1,5.18,9.72,9.72,0,0,0,3,3.67,18.48,18.48,0,0,0,4.93,2.6,62.29,62.29,0,0,0,6.84,2q3.52.87,6.3,1.69a22.34,22.34,0,0,1,4.64,1.91,8.24,8.24,0,0,1,2.85,2.56,6.39,6.39,0,0,1,1,3.63,6.5,6.5,0,0,1-3,5.84c-2,1.29-4.83,1.93-8.5,1.94a25.53,25.53,0,0,1-5.65-.61,31.25,31.25,0,0,1-5-1.59,24.46,24.46,0,0,1-4.18-2.19,17.18,17.18,0,0,1-3-2.45l-3.09,5.47A31.22,31.22,0,0,0,139,63.06a34.11,34.11,0,0,0,11.2,1.83,30.72,30.72,0,0,0,7.34-.83,16.9,16.9,0,0,0,5.87-2.59A12.8,12.8,0,0,0,167.34,57a13.4,13.4,0,0,0,1.44-6.37,12.81,12.81,0,0,0-1.19-5.84A11.06,11.06,0,0,0,164.14,40.77Z" fill="#fff"/><path d="M208.27,40.77A20.87,20.87,0,0,0,202.8,38a63.91,63.91,0,0,0-7.16-2c-2.31-.53-4.31-1-6-1.51a19.41,19.41,0,0,1-4.21-1.69A6.52,6.52,0,0,1,183,30.48a6.83,6.83,0,0,1-.8-3.46A7.42,7.42,0,0,1,185,20.9c1.84-1.49,4.76-2.23,8.74-2.23a20,20,0,0,1,4.43.47,21.64,21.64,0,0,1,7.17,2.91,10.72,10.72,0,0,1,2.3,1.95l3-5.26a25.61,25.61,0,0,0-16.77-5.83,26.49,26.49,0,0,0-7.35,1,16.58,16.58,0,0,0-5.83,2.92,13.54,13.54,0,0,0-3.81,4.75,14.52,14.52,0,0,0-1.4,6.42,12.12,12.12,0,0,0,1,5.18,9.72,9.72,0,0,0,3,3.67,18.54,18.54,0,0,0,4.94,2.6,60.17,60.17,0,0,0,6.84,2q3.53.87,6.3,1.69a22.34,22.34,0,0,1,4.64,1.91,8,8,0,0,1,2.8,2.6,6.39,6.39,0,0,1,1,3.63,6.5,6.5,0,0,1-3,5.84c-2,1.29-4.85,1.94-8.49,1.94a25.69,25.69,0,0,1-5.66-.61,31.25,31.25,0,0,1-5-1.59,24,24,0,0,1-4.17-2.19,16.82,16.82,0,0,1-3-2.45l-3.1,5.47a31.52,31.52,0,0,0,9.62,5.37,34,34,0,0,0,11.19,1.83,30.86,30.86,0,0,0,7.35-.83,16.85,16.85,0,0,0,5.86-2.59A12.57,12.57,0,0,0,211.48,57a13.4,13.4,0,0,0,1.44-6.37,13.07,13.07,0,0,0-1.19-5.84A11.09,11.09,0,0,0,208.27,40.77Z" fill="#fff"/><path d="M244,60.31a17.38,17.38,0,0,1-6.93-1.4A18,18,0,0,1,231.38,55a21.33,21.33,0,0,1-6-13.48H253.8l1.41-5h-30A22,22,0,0,1,227,29.08a18.67,18.67,0,0,1,4-5.82,17.71,17.71,0,0,1,5.77-3.78,18.63,18.63,0,0,1,14,0,17.71,17.71,0,0,1,5.77,3.78,19.72,19.72,0,0,1,1.81,2.07L260.06,19a25,25,0,0,0-39.74,9.87,26.75,26.75,0,0,0-1.89,10,27.29,27.29,0,0,0,1.89,10.19,26.65,26.65,0,0,0,5.28,8.39,24.61,24.61,0,0,0,18.24,7.81,27.11,27.11,0,0,0,3.37-.22l1.52-5.44A18.48,18.48,0,0,1,244,60.31Z" fill="#fff"/><path d="M260.16,38.94a27.35,27.35,0,0,1,1.62-9.18,25.67,25.67,0,0,1,4.71-8.17,24.33,24.33,0,0,1,7.6-5.87,22.49,22.49,0,0,1,10.26-2.27A20.9,20.9,0,0,1,296,16.59a19.21,19.21,0,0,1,7.13,8l-3,1.73A15.87,15.87,0,0,0,297,21.88,17,17,0,0,0,293,19a17.91,17.91,0,0,0-4.42-1.62,21.63,21.63,0,0,0-4.54-.5,18.26,18.26,0,0,0-8.64,2A20.21,20.21,0,0,0,269.08,24a22.54,22.54,0,0,0-3.92,7.16,25.32,25.32,0,0,0-1.33,8A24.19,24.19,0,0,0,269.73,55a21.1,21.1,0,0,0,6.48,5,17.8,17.8,0,0,0,8.07,1.87,20.18,20.18,0,0,0,4.71-.58,18.73,18.73,0,0,0,4.68-1.8,17.94,17.94,0,0,0,4.21-3.13,16.54,16.54,0,0,0,3.24-4.5l3.1,1.51a17.42,17.42,0,0,1-3.49,5.12,21.6,21.6,0,0,1-4.93,3.74A23.86,23.86,0,0,1,290,64.5a25.29,25.29,0,0,1-6,.75,20.22,20.22,0,0,1-9.61-2.3,25.34,25.34,0,0,1-7.53-6,28.2,28.2,0,0,1-4.93-8.42A27.29,27.29,0,0,1,260.16,38.94Z" fill="#fff"/><path d="M313.51,64.86v-51h3.67v51Z" fill="#fff"/><path d="M366.57,17.05H347.85V64.86h-3.67V17.05H325.46V13.74h41.11Z" fill="#fff"/><path d="M398.76,17a20.32,20.32,0,0,0-12.25,4.46,21.84,21.84,0,0,0-7.26,11.32v32h-3.33v-51h3.24V26.84a24.86,24.86,0,0,1,7-8.82,18.66,18.66,0,0,1,9.41-4c.65,0,1.24,0,1.76,0a12.63,12.63,0,0,1,1.38,0Z" fill="#fff"/><path d="M426.61,65.22A21,21,0,0,1,416.89,63a25,25,0,0,1-7.56-5.83,25.82,25.82,0,0,1-4.9-8.28,27.47,27.47,0,0,1-1.73-9.58,26.46,26.46,0,0,1,1.84-9.79,27.16,27.16,0,0,1,5-8.28,24,24,0,0,1,7.59-5.72,21.46,21.46,0,0,1,9.51-2.13,20.89,20.89,0,0,1,9.72,2.27,24.67,24.67,0,0,1,7.52,5.94,27.39,27.39,0,0,1,4.86,8.32,27.07,27.07,0,0,1-5.15,27.5A24.26,24.26,0,0,1,436,63.11,21.2,21.2,0,0,1,426.61,65.22ZM406.37,39.3a24.91,24.91,0,0,0,1.48,8.46A22.63,22.63,0,0,0,412,55a20.78,20.78,0,0,0,6.4,5,18,18,0,0,0,8.18,1.87,17.64,17.64,0,0,0,8.31-1.94,20.9,20.9,0,0,0,6.37-5.15,23.53,23.53,0,0,0,4.11-7.24,24.31,24.31,0,0,0-.07-16.67,23.73,23.73,0,0,0-4.22-7.2,20.78,20.78,0,0,0-6.4-5,18.73,18.73,0,0,0-16.46.07,20.24,20.24,0,0,0-6.37,5.15,24.62,24.62,0,0,0-5.51,15.44Z" fill="#fff"/><path d="M500.26,64.86h-3.33V36.44q0-10.48-2.94-15.33t-9.41-4.86a19.45,19.45,0,0,0-6.91,1.28,23.64,23.64,0,0,0-6.27,3.53,25.79,25.79,0,0,0-5.09,5.29A20.34,20.34,0,0,0,463.12,33V64.86h-3.33v-51h3.14V26.64a23.16,23.16,0,0,1,4-5.53,26.22,26.22,0,0,1,5.35-4.27,27.19,27.19,0,0,1,6.22-2.74,23.5,23.5,0,0,1,6.71-1q8,0,11.57,5.73T500.3,36Z" fill="#fff"/><path d="M453.31,9.75s-23.21-5.39-26,21C427.29,30.77,450.74,34,453.31,9.75Z" fill="#fbea00"/><path d="M440.41,0s-23,6.24-13,30.83C427.44,30.83,449.61,22.57,440.41,0Z" fill="#fff"/></svg>
